<svg xmlns="http://www.w3.org/2000/svg" viewBox="0 0 240 240">
  <circle cx="120" cy="120" r="108" fill="#1E2A4A"/>
  <circle cx="58" cy="70" r="4" fill="#FFE08A"/>
  <circle cx="186" cy="58" r="3" fill="#FFE08A"/>
  <circle cx="190" cy="160" r="5" fill="#FFE08A"/>
  <circle cx="46" cy="150" r="3" fill="#FFE08A"/>
  <path d="M120 200 C108 186 104 176 112 162 L128 162 C136 176 132 186 120 200 Z" fill="#FF8A3D"/>
  <path d="M120 188 C114 180 113 174 116 166 L124 166 C127 174 126 180 120 188 Z" fill="#FFD23F"/>
  <path d="M96 128 L72 164 L100 156 Z" fill="#E94F64"/>
  <path d="M144 128 L168 164 L140 156 Z" fill="#E94F64"/>
  <path d="M120 38 C146 64 150 110 142 162 L98 162 C90 110 94 64 120 38 Z" fill="#F4F1EA"/>
  <path d="M120 38 C132 50 139 62 143 76 L97 76 C101 62 108 50 120 38 Z" fill="#E94F64"/>
  <circle cx="120" cy="108" r="15" fill="#3D7DD8"/>
  <circle cx="120" cy="108" r="9" fill="#9CD3FF"/>
  <path d="M112 162 L128 162 L128 172 L112 172 Z" fill="#5B6478"/>
</svg>
